<svg width="21" height="21" viewBox="0 0 21 21" fill="none" xmlns="http://www.w3.org/2000/svg">
<path fill-rule="evenodd" clip-rule="evenodd" d="M10.078 5.70479C7.60788 5.97897 5.82772 8.20365 6.10189 10.6738C6.37606 13.1439 8.60074 14.924 11.0709 14.6499C13.541 14.3757 15.3211 12.151 15.047 9.6809C14.7703 7.21213 12.5473 5.43331 10.078 5.70479ZM10.9054 13.159C9.25864 13.3418 7.77552 12.155 7.59273 10.5083C7.40995 8.86154 8.59673 7.37842 10.2435 7.19564C11.8902 7.01286 13.3733 8.19963 13.5561 9.84637C13.7389 11.4931 12.5521 12.9762 10.9054 13.159ZM18.7964 9.46847C18.7852 9.33388 18.7703 9.1997 18.7517 9.06594L19.9492 7.1748C20.0765 6.97346 20.1005 6.72361 20.014 6.50166C19.6911 5.67028 19.2588 4.88559 18.7288 4.16827C18.5881 3.97793 18.3658 3.8652 18.1291 3.86413L15.8916 3.86346C15.7889 3.77676 15.6854 3.69393 15.581 3.61495L15.0742 1.42815C15.021 1.19729 14.8619 1.00512 14.645 0.909827C13.8287 0.550826 12.9685 0.301539 12.0867 0.16847C11.851 0.133023 11.6126 0.211659 11.4443 0.380322L9.86557 1.95534C9.73139 1.97024 9.59721 1.98513 9.46304 2.00002L7.57221 0.805386C7.37086 0.678084 7.12102 0.654 6.89906 0.740499C6.06787 1.06388 5.28323 1.49607 4.56567 2.02576C4.37534 2.16647 4.2626 2.38877 4.26154 2.62547L4.26128 4.86668C4.17465 4.96999 4.09181 5.07351 4.01277 5.17724L1.82524 5.67755C1.59438 5.73072 1.40222 5.88984 1.30692 6.10673C0.947923 6.92303 0.698635 7.78329 0.565566 8.66507C0.530119 8.9007 0.608756 9.13916 0.777418 9.30749L2.35244 10.8862C2.36733 11.0204 2.38223 11.1545 2.39712 11.2887L1.20248 13.1795C1.07518 13.3809 1.0511 13.6307 1.1376 13.8527C1.46059 14.6841 1.8928 15.4688 2.42286 16.1861C2.56357 16.3764 2.78587 16.4891 3.02257 16.4902L5.26005 16.4909C5.36336 16.5775 5.46688 16.6604 5.57061 16.7394L6.07465 18.9265C6.12782 19.1574 6.28694 19.3495 6.50383 19.4448C7.32013 19.8038 8.18039 20.0531 9.06216 20.1862C9.2978 20.2216 9.53626 20.143 9.70459 19.9743L11.2833 18.3993C11.4179 18.3881 11.552 18.3733 11.6858 18.3546L13.577 19.5521C13.7783 19.6794 14.0281 19.7035 14.2501 19.617C15.0815 19.294 15.8662 18.8617 16.5835 18.3317C16.7738 18.191 16.8866 17.9687 16.8876 17.732L16.8883 15.4945C16.975 15.3918 17.0578 15.2883 17.1368 15.1839L19.3236 14.6771C19.5545 14.6239 19.7466 14.4648 19.8419 14.2479C20.2009 13.4316 20.4502 12.5714 20.5833 11.6896C20.6187 11.454 20.5401 11.2155 20.3714 11.0472L18.7964 9.46847ZM17.229 9.02932C17.2748 9.29693 17.3047 9.56699 17.3188 9.83811C17.3282 10.0238 17.4061 10.1993 17.5376 10.3307L19.0432 11.836C18.945 12.335 18.8026 12.8243 18.6178 13.2981L16.5385 13.7704C16.3573 13.8111 16.1977 13.9175 16.0906 14.0691C15.9336 14.2907 15.7638 14.503 15.5819 14.7047C15.4576 14.8425 15.3887 15.0216 15.3887 15.2072L15.3884 17.3372C14.9667 17.6215 14.5205 17.8677 14.0551 18.0728L12.2554 16.9341C12.1114 16.8431 11.9407 16.8038 11.7714 16.8227L11.7267 16.8277C11.4591 16.8734 11.189 16.9034 10.9179 16.9175C10.7322 16.9268 10.5567 17.0048 10.4253 17.1363L8.91543 18.6433C8.41643 18.5451 7.92714 18.4027 7.45333 18.2179L6.98137 16.1414C6.94066 15.9602 6.83422 15.8006 6.68264 15.6935C6.46101 15.5365 6.24877 15.3667 6.04702 15.1848C5.90921 15.0605 5.73016 14.9916 5.54451 14.9916L3.41449 14.9903C3.13017 14.5686 2.88399 14.1225 2.67886 13.6571L3.81758 11.8574C3.91703 11.7003 3.95461 11.5119 3.92304 11.3287C3.8773 11.0611 3.84732 10.7911 3.83326 10.52C3.8239 10.3343 3.74592 10.1588 3.61446 10.0273L2.10848 8.51833C2.20668 8.01933 2.34903 7.53004 2.53385 7.05624L4.61039 6.58427C4.79152 6.54356 4.95111 6.43712 5.0583 6.28554C5.21526 6.06391 5.38509 5.85167 5.56691 5.64993C5.69183 5.51197 5.76101 5.33249 5.76098 5.14638L5.76143 3.0174C6.18311 2.73307 6.62928 2.48689 7.09466 2.28177L8.89439 3.42049C9.05144 3.51993 9.23982 3.55751 9.423 3.52594C9.69061 3.4802 9.96067 3.45023 10.2318 3.43617C10.4174 3.4268 10.593 3.34882 10.7244 3.21736L12.2334 1.71139C12.7324 1.80959 13.2217 1.95193 13.6955 2.13675L14.1675 4.2133C14.2082 4.39443 14.3146 4.55402 14.4662 4.6612C14.6878 4.81817 14.9001 4.988 15.1018 5.16981C15.2396 5.2942 15.4187 5.36305 15.6043 5.36305L17.7343 5.3634C18.0186 5.78508 18.2648 6.23126 18.4699 6.69664L17.3312 8.49637C17.2307 8.65475 17.1933 8.84501 17.2262 9.02964L17.229 9.02932Z" fill="#0D141C"/>
</svg>
